<svg xmlns="http://www.w3.org/2000/svg" width="900" height="520"><style>text{font-family:Arial;font-size:19px}.h{font-size:27px;font-weight:bold}.b{fill:#fff;stroke:#222;stroke-width:2}.a{stroke:#222;stroke-width:3;marker-end:url(#m)}</style><defs><marker id="m" markerWidth="10" markerHeight="10" refX="8" refY="3" orient="auto"><path d="M0,0 L0,6 L9,3 z"/></marker></defs><text x="25" y="35" class="h">Обработка прерывания</text><rect class="b" x="50" y="85" width="210" height="65"/><text x="85" y="125">Флаг Fi = 1</text><rect class="b" x="345" y="85" width="260" height="65"/><text x="375" y="115">СК сохраняется</text><text x="395" y="138">в стек</text><rect class="b" x="660" y="85" width="190" height="65"/><text x="705" y="125">СК = i</text><rect class="b" x="660" y="240" width="190" height="65"/><text x="695" y="280">JMP Ai</text><rect class="b" x="345" y="240" width="260" height="65"/><text x="380" y="270">Программа обработки</text><text x="430" y="293">прерывания</text><rect class="b" x="50" y="240" width="210" height="65"/><text x="125" y="280">RETI</text><rect class="b" x="250" y="390" width="400" height="65"/><text x="300" y="430">СК восстанавливается из стека</text><line class="a" x1="260" y1="117" x2="340" y2="117"/><line class="a" x1="605" y1="117" x2="655" y2="117"/><line class="a" x1="755" y1="150" x2="755" y2="235"/><line class="a" x1="660" y1="272" x2="610" y2="272"/><line class="a" x1="345" y1="272" x2="265" y2="272"/><line class="a" x1="155" y1="305" x2="300" y2="385"/></svg>